<svg width="21" height="20" viewBox="0 0 21 20" fill="none" xmlns="http://www.w3.org/2000/svg">
<path fill-rule="evenodd" clip-rule="evenodd" d="M6.46536 14.7437L6.55402 13.6798L5.68438 13.0606C4.44491 12.178 3.625 10.8096 3.625 8.75C3.625 6.7957 4.36324 5.47403 5.4746 4.59669C6.6415 3.67552 8.38147 3.125 10.5 3.125C12.6185 3.125 14.3585 3.67552 15.5254 4.59669C16.6368 5.47403 17.375 6.7957 17.375 8.75C17.375 10.7043 16.6368 12.026 15.5254 12.9033C14.3585 13.8245 12.6185 14.375 10.5 14.375C10.4105 14.375 10.3216 14.374 10.2332 14.372L9.49645 14.3556L8.94567 14.8452L6.73465 16.8105C6.68793 16.8521 6.6276 16.875 6.5651 16.875C6.4158 16.875 6.29838 16.7474 6.31078 16.5986L6.46536 14.7437ZM10.1914 16.2466L7.98033 18.2119C7.59039 18.5585 7.08682 18.75 6.5651 18.75C5.31885 18.75 4.33876 17.6848 4.44226 16.4429L4.59684 14.588C2.84732 13.3422 1.75 11.3963 1.75 8.75C1.75 3.75 5.66751 1.25 10.5 1.25C15.3325 1.25 19.25 3.75 19.25 8.75C19.25 13.75 15.3325 16.25 10.5 16.25C10.3967 16.25 10.2938 16.2489 10.1914 16.2466ZM11.4375 6.25C11.4375 5.73223 11.0178 5.3125 10.5 5.3125C9.98223 5.3125 9.5625 5.73223 9.5625 6.25V7.8125H8C7.48223 7.8125 7.0625 8.23223 7.0625 8.75C7.0625 9.26777 7.48223 9.6875 8 9.6875H9.5625V11.25C9.5625 11.7678 9.98223 12.1875 10.5 12.1875C11.0178 12.1875 11.4375 11.7678 11.4375 11.25V9.6875H13C13.5178 9.6875 13.9375 9.26777 13.9375 8.75C13.9375 8.23223 13.5178 7.8125 13 7.8125H11.4375V6.25Z" fill="#3072B3"/>
</svg>
