<svg width="20" height="20" viewBox="0 0 20 20" fill="none" xmlns="http://www.w3.org/2000/svg">
<path fill-rule="evenodd" clip-rule="evenodd" d="M12.2114 13.4133C12.2161 13.4088 12.2208 13.4042 12.2254 13.3996L16.0761 9.54886C16.9878 8.63717 17.5 7.40067 17.5 6.11136C17.5 3.4265 15.3235 1.25 12.6386 1.25C11.3493 1.25 10.1128 1.76218 9.20114 2.67386L5.91356 5.96143L5.89959 5.97513L3.81663 8.05809C2.57342 9.30129 1.875 10.9874 1.875 12.7456C1.875 16.4067 4.84296 19.3747 8.50412 19.3747C10.2623 19.3747 11.9484 18.6763 13.1916 17.4331L17.1496 13.4751C17.5157 13.109 17.5157 12.5154 17.1496 12.1493C16.7835 11.7832 16.1899 11.7832 15.8238 12.1493L11.8658 16.1073C10.9742 16.9988 9.765 17.4997 8.50412 17.4997C5.87849 17.4997 3.75 15.3712 3.75 12.7456C3.75 11.4847 4.25088 10.2755 5.14245 9.38391L6.66227 7.86409L6.67624 7.85041L10.527 3.99968C11.087 3.43963 11.8466 3.125 12.6386 3.125C14.288 3.125 15.625 4.46204 15.625 6.11136C15.625 6.90339 15.3104 7.66298 14.7503 8.22303L13.3377 9.63566C13.333 9.64018 13.3283 9.64475 13.3237 9.64938L9.58027 13.3928C9.35174 13.6213 9.04178 13.7497 8.71859 13.7497C8.04558 13.7497 7.5 13.2041 7.5 12.5311C7.5 12.2079 7.62839 11.898 7.85692 11.6694L11.6003 7.92603C11.9664 7.55992 11.9664 6.96632 11.6003 6.60021C11.2342 6.23409 10.6406 6.23409 10.2745 6.60021L6.53109 10.3436C5.95093 10.9238 5.625 11.7106 5.625 12.5311C5.625 14.2397 7.01005 15.6247 8.71859 15.6247C9.53906 15.6247 10.3259 15.2988 10.9061 14.7186L12.2114 13.4133Z" fill="black" fill-opacity="0.85"/>
</svg>
