<svg width="20" height="20" viewBox="0 0 20 20" fill="none" xmlns="http://www.w3.org/2000/svg">
<path fill-rule="evenodd" clip-rule="evenodd" d="M9.11323 17.3795L6.5625 13.4375L2.62046 10.8868C1.76595 10.3339 1.25 9.38545 1.25 8.36766C1.25 7.09807 2.04906 5.96589 3.24529 5.54056L14.836 1.41941C15.1513 1.3073 15.4835 1.25 15.8182 1.25C17.4374 1.25 18.75 2.56261 18.75 4.1818C18.75 4.51646 18.6927 4.84865 18.5806 5.16398L16.8139 4.53583C16.8543 4.42217 16.875 4.30243 16.875 4.1818C16.875 3.59815 16.4019 3.125 15.8182 3.125C15.6976 3.125 15.5778 3.14565 15.4642 3.18607L3.87343 7.30722C3.42473 7.46676 3.125 7.89144 3.125 8.36766C3.125 8.74943 3.31853 9.10518 3.63906 9.31258L7.11346 11.5607L11.2121 7.46209C11.5782 7.09597 12.1718 7.09597 12.5379 7.46209C12.904 7.8282 12.904 8.4218 12.5379 8.78791L8.43928 12.8865L10.6874 16.3609C10.8948 16.6815 11.2506 16.875 11.6323 16.875C12.1086 16.875 12.5332 16.5753 12.6928 16.1266L16.8139 4.53584L18.5806 5.16398L14.4594 16.7547C14.0341 17.9509 12.9019 18.75 11.6323 18.75C10.6145 18.75 9.66615 18.234 9.11323 17.3795Z" fill="black" fill-opacity="0.5"/>
</svg>
