<svg xmlns="http://www.w3.org/2000/svg" width="270" height="270" fill="none">
    <g clip-path="url(#a)">
        <circle cx="135" cy="135" r="117" fill="#3697F1"/>
        <path fill="#000" fill-opacity=".8" d="M193.2-34.9a67.9 67.9 0 0 1 24.7 4.3c2.7 1 4.7 2 6 3v6.4l-65.7 50.4-7.3-6 42.3-58ZM77.6 269.7a75.7 75.7 0 0 1 23.3 8.3v9.7H48.5l-3-3L60 218.3 91 73.5l-20.3-3v-8.3c7.3-3.1 15-6 23-8.4a81 81 0 0 1 23-3.6l6.7 4-13.7 58.7h1.3c4-9 8.4-17.1 13-24.7 5-7.6 10.1-14.1 15.7-19.7a63.1 63.1 0 0 1 18-13.3 44 44 0 0 1 20.7-5A33.8 33.8 0 0 1 204 61.8a38 38 0 0 1 7.6 14.4 61 61 0 0 1 3 20 156 156 0 0 1-7.6 49 140 140 0 0 1-21 41 106 106 0 0 1-30.7 28.4 74 74 0 0 1-38 10.4c-3.8 0-7-.2-9.7-.4-2.7-.2-5-.6-7-1.3-2-.5-4-1.1-6-2l-6-3-11 51.4Zm85-198.9c-6.4 0-12.5 2.6-18.3 7.7a99.4 99.4 0 0 0-16.4 18 263.3 263.3 0 0 0-23 43.4l-13 63c3.1 2.7 6.3 4.7 9.7 6 3.5 1.2 9 1.7 16.7 1.7 8.8 0 17.2-3.2 25-9.7 8-6.6 14.9-15 20.6-25.3 6-10.2 10.7-21.6 14-34a137 137 0 0 0 5.4-37.4 45 45 0 0 0-5.7-24.7 16.7 16.7 0 0 0-15-8.7Z"/>
    </g>
    <defs>
        <clipPath id="a">
            <path fill="#fff" d="M0 0h270v270H0z"/>
        </clipPath>
    </defs>
</svg>
