<svg width="270" height="270" viewBox="0 0 270 270" fill="none" xmlns="http://www.w3.org/2000/svg">
<g clip-path="url(#clip0_39_1300)">
<rect width="270" height="270" fill="#E5E5E5"/>
<path d="M121.561 36.9407L147.272 -11.9526H176.355L143.479 36.9407H121.561Z" fill="black"/>
<path d="M63.1135 281.407V58.8584H87.1387V84.5695H90.0891C91.9156 81.7596 94.4446 78.1769 97.676 73.8214C100.978 69.3957 105.684 65.4618 111.796 62.0196C117.978 58.5071 126.338 56.7509 136.875 56.7509C150.503 56.7509 162.516 60.158 172.913 66.9721C183.31 73.7863 191.423 83.4455 197.254 95.9498C203.085 108.454 206 123.206 206 140.207C206 157.347 203.085 172.205 197.254 184.78C191.423 197.284 183.345 206.978 173.018 213.863C162.691 220.677 150.784 224.084 137.296 224.084C126.9 224.084 118.575 222.363 112.323 218.921C106.071 215.408 101.259 211.439 97.8868 207.013C94.5148 202.518 91.9156 198.794 90.0891 195.844H87.9817V281.407H63.1135ZM87.5602 139.785C87.5602 152.009 89.3515 162.792 92.9342 172.135C96.5169 181.408 101.75 188.678 108.635 193.947C115.519 199.146 123.949 201.745 133.924 201.745C144.321 201.745 152.997 199.005 159.952 193.526C166.977 187.976 172.245 180.53 175.758 171.186C179.34 161.773 181.132 151.306 181.132 139.785C181.132 128.405 179.376 118.149 175.863 109.016C172.421 99.8135 167.187 92.5428 160.162 87.2038C153.208 81.7947 144.462 79.0901 133.924 79.0901C123.809 79.0901 115.309 81.6542 108.424 86.7824C101.54 91.8403 96.3413 98.9354 92.8288 108.068C89.3164 117.13 87.5602 127.702 87.5602 139.785Z" fill="black"/>
</g>
<defs>
<clipPath id="clip0_39_1300">
<rect width="270" height="270" fill="white"/>
</clipPath>
</defs>
</svg>
